<svg xmlns="http://www.w3.org/2000/svg" xmlns:xlink="http://www.w3.org/1999/xlink" width="809.01" height="809.01" viewBox="0 0 809.01 809.01">
  <path fill="" id="minus" d="M405.848,1.344c-223.421,0-404.5,181.083-404.5,404.5s181.083,404.5,404.5,404.5,404.5-181.083,404.5-404.5S629.27,1.344,405.848,1.344Zm0,773.82c-203.981,0-369.363-165.335-369.363-369.316S201.867,36.486,405.848,36.486,775.164,201.867,775.164,405.848,609.83,775.164,405.848,775.164ZM564.173,388.277H247.57a17.571,17.571,0,0,0,0,35.142h316.6a17.571,17.571,0,1,0,0-35.142Z" transform="translate(-1.344 -1.344)"/>
</svg>
