<svg xmlns="http://www.w3.org/2000/svg" width="1072.248" height="941.582" viewBox="0 0 1072.248 941.582">
  <path id="heart_full" d="M519.539,936.723,89.842,510.432a296.473,296.473,0,0,1-45.576-58.149C-26.193,335.4-7.53,186.293,89.711,89.837A298.95,298.95,0,0,1,301.416,2.811c125.988,0,203.978,73.34,236.523,114.725C570.615,76.02,648.539,2.811,774.462,2.811A298.675,298.675,0,0,1,986.167,89.837c97.176,96.456,115.97,245.56,45.38,362.577a294.679,294.679,0,0,1-45.51,58.083L556.34,936.789a25.986,25.986,0,0,1-36.8-.066" transform="translate(-1.813 -2.811)"/>
</svg>
