<svg xmlns="http://www.w3.org/2000/svg" width="809.01" height="809.01" viewBox="0 0 809.01 809.01">
  <path id="plus" d="M564.174,388.278H423.467V247.617a17.594,17.594,0,0,0-35.189-.047V388.231H247.571a17.571,17.571,0,0,0,0,35.142H388.278V564.034a17.571,17.571,0,1,0,35.142,0V423.373H564.128a17.548,17.548,0,1,0,.047-35.1ZM405.849,1.344c-223.422,0-404.5,181.083-404.5,404.5s181.083,404.505,404.5,404.505S810.354,629.271,810.354,405.849,629.271,1.344,405.849,1.344Zm0,773.821c-203.982,0-369.363-165.335-369.363-369.316S201.867,36.486,405.849,36.486,775.165,201.867,775.165,405.849,609.831,775.165,405.849,775.165Z" transform="translate(-1.344 -1.344)"/>
</svg>
